<svg xmlns="http://www.w3.org/2000/svg" width="12" height="14" fill="none" viewBox="0 0 12 14">
  <path fill="#202020" d="M10.667 2A.667.667 0 0110 1.333a.667.667 0 00-1.333 0A.667.667 0 018 2H4a.667.667 0 01-.667-.667.667.667 0 10-1.333 0A.667.667 0 011.333 2C.593 2 .007 2.6.007 3.333L0 12.667C0 13.4.593 14 1.333 14h9.334C11.4 14 12 13.4 12 12.667V3.333C12 2.6 11.4 2 10.667 2zm0 7.667a3 3 0 01-3 3H4.333a3 3 0 01-3-3V8.333a3 3 0 013-3h3.334a3 3 0 013 3v1.334zm-8-1.334a1.667 1.667 0 113.333 0 1.667 1.667 0 01-3.333 0z"/>
</svg>
